<?xml version="1.0" encoding="UTF-8"?>
<svg id="Layer_2" data-name="Layer 2"
  xmlns="http://www.w3.org/2000/svg" viewBox="0 0 1344.93 327.28">
  <defs>
    <style>
      .cls-1 {
              <!-- fill: #fdf0da; -->
         fill: #fff;
      }
    </style>
  </defs>
  <g id="skyline_background" data-name="skyline background">
    <g>
      <path class="cls-1" d="M1344.84,327.28c-.41-2.47,1.08-17.81-1.27-17.81h-19.08v-23.74c0-.17-3.09.23-3.4,0-.16-.12,1.14-1.76.51-2.57-.8-1.04-3.02-.59-3.92-1.22-2.63-1.85,1.09-18.1.01-21.89,5.07-2.84,4.32-16.94,3.22-22.04-1.09-5.09-6.85-4.06-7.46-4.85-.33-.43,3.73-8.17-2.97-8.55-7.91-.46-3.33,9.01-3.81,9.4-5.52-.59-6.51.69-7.41,5.74-1.6,8.99,1.22,11.82,1.29,17.74.01,1.17-1.3,2.07-1.5,3.3-1.02,6.17,4.14,6.05,4.92,8.57.94,3.03-.56,8.12.95,11.61-.61,1.96-3.82,1.07-4.16,1.4-.85.85,2.04,4.44-3.42,3.36v23.74h-1.7v-30.95c-4.06-3.69-35.43-13.48-36.32-16.25-.39-1.2-.41-7.69-.12-9.02.15-.67,1.32-.69,1.64-1.21,2.15-3.47-.23-2.34-.82-3.35-2.48-4.22.11-9.85.03-14.22-.06-3.37-2.32-5.82-2.63-8.5-.43-3.77,2.26-7.19,1.8-9.19-.16-.69-1.78-.86-2.43-1.98-2.58-4.43,1.06-8.19.67-8.75-.35-.51-4.89-.95-.84-2.14-.81-.87-1.98-1.52-2.36-2.73-.83-2.66-1.28-20.46-2.3-20.6-.94-.13-2,.09-2.96,0l-1.82,20.68c-.49,1.52-5.39,1.73-.73,3.48-5.12,2.17-.31,2.91-.84,6.69-.38,2.65-3.35,5.03-3.41,5.35-.44,2.33,2.21,5.31,1.76,9.19-.31,2.68-2.57,5.13-2.63,8.5-.08,4.37,2.51,10,.03,14.22-.59,1.01-2.97-.12-.82,3.35.32.52,1.5.54,1.64,1.21.29,1.3.27,7.89-.12,9.02-1.03,3.01-32.15,12.39-36.32,16.25v30.95h-5.94s-.84-77.16-.84-77.16h-98.36l-2.55,77.16c-.6-.12-3.39.17-3.39,0v-45.79h-5.94s0,5.94,0,5.94h-15.26c.07-.74.72-1.28.69-2.09-.66-19.74-.37-41.16-2.35-60.28-.38-3.68,1.04-8.99-2.57-11.4l-1.7,3.39c-.4-5.12-1.53-10.37-2.96-15.28-.27-.93-1.06-4.99-2.55-4.22-2.47,1.28-3.89,17.77-4.68,18.65-1.56,1.73-1.72-3.22-3.37-1.69-1.17,1.08-.71,7.66-.92,9.68-1.51,14.52-.99,29.05-2.49,44.15-.36,3.66.28,7.74,0,11.45-2.49-2.9-12.36-10.41-13.55-13.15-.74-1.7,2.57-.64,1.57-3.25-1.13-2.94-4.56-2.94-5.69,0-1.01,2.61,2.31,1.55,1.57,3.25-.37.85-12.29,12.78-13.14,13.15l-2.54-3.38-1.26,1.69c-.85-2.63-3.46-19.69-4.26-20.35-.1-.08-2.42-.08-2.52,0-.8.66-3.79,17.76-4.26,20.35l-1.26-1.69c-1.02.88-1.84,1.56-2.11,2.98-2.53,13.62.32,29.14-.87,43.22-.29,3.43-.39,5.52-4.23,4.67v-117.43l-33.48-59.77-33.5,63.16v114.04h-5.94v-175.51c0-.11,1.41-.12,2.11-.82,20.06-20.09-.02-52.02-26.08-43.08-16.22,5.56-21.83,25.79-12.01,39.61.86,1.21,5.46,5.17,5.46,5.56v174.24h-7.64c.14-4.91-1.63-6.76,4.24-5.94v-82.25h-11.87c-.25,0,.25-5.09,0-5.09h-33.07c-.62,0,2.18-8.92-5.51-9.4-8.9-.56-6.52,9.4-7.2,9.4h-14.84c-1.75,0-.24,3.86-.42,5.08-1.04,1.06-12.43-2.12-12.72,2.12v78.01c.11,3.29,3.86,1.54,5.1,2.13.25.12-.73,4.43,0,5.48l-6.8.44V120.4h-17.81c.9-1.63-1.3-7.26-2.49-8.09-1.27-.87-3.99-.09-4.28-.41-.25-.27.27-1.95-.04-2.73-.31-.8-1.5-.64-1.65-1.24-1.3-5.29.25-17.08-.91-23.54-.23-1.28-3.45-6.07-4.18-5.55-.01,2.06-2.58,3.28-2.98,4.97-.33,1.41.74,4.35.47,6.51-.24,1.95-1.51,3.01-1.8,5-.55,3.88.6,8.41-.2,12.53-1.19,6.19-5.14,3.48-5.7,4.04-.3.3.33,2.84,0,3.41-.07.13-1.9-1.22-2.53.43l.84,4.65h-18.65v189.08h-1.7v-166.61c0-1.33-2.78-5.52-4.69-5.49l-50.9-.07c-2.71-.84-5.46,6.56-5.46,8.1v164.07h-1.7V52.15c-2.91-1.52-8.52-1.78-11.87-.42v-17.81c0-.3-5.94.3-5.94,0V15.26c0-.21-4.24.21-4.24,0V0h-61.05v15.26c0,.21-4.24-.21-4.24,0v18.65c0,.25-5.09-.25-5.09,0v134.81h-.85V50.87c-1.96.63-11.87-.74-11.87,1.27v257.33h-1.7v-177.63c0-1.44-4.02-1.13-4.2-1.31-.88-.83.99-10.04.34-11.01-.55-.82-2.2-1.15-2.93-2.1-3.6-4.63-5.53-8.68-11.11-11.77-2.07-1.15-10.22-4.2-12.19-3.93-.89.13-.29,1.77-.44,2.55-1.43.21-.83-2.11-2.16-2.46-3.41-.9-14.13,4.93-16.93,7.53-2.91,2.7-4.42,7.01-6.28,8.8-.88.85-2.25.39-2.47.63-.79.83.5,11.84-.13,12.65-.12.15-3.39-1.65-3.39.42v177.63h-2.54V103.02c0-3.96-2.31-3.47-2.56-4.41-.54-1.97.57-11.58.03-12.13-1.61-.27-9.83.37-10.18,0-.21-.22.37-4.13-.44-5.93-1.72-3.81-14.64-13.62-16.88-17.88-1.51-2.87-1.36-6.95-1.34-10.11h-2.54s-1.65,10.65-1.65,10.65c-2.56,3.73-15.35,14.4-16.6,17.35-.45,1.07.24,4.5.44,5.91h-11.03c-1.18,1.18,2.29,13.04-2.13,13.57l-.4,208.94c-.19,1.46-3.4.42-3.4-1.62v-48.75h-16.96v-15.26h-23.74v-20.35h-40.7c-.21,0,.16,3.57,0,4.24-3.02.7-1.31-3.33-1.7-5.09h10.18s0-22.89,0-22.89h-27.98v89.88h-3.39v-100.05h-9.33c-.51-2.71,1.61-11.02-2.12-11.02h-36.46c-.09,0-1.27,1.18-1.27,1.27v61.47h-21.2v54.26h-.85v-32.22h-36.04c-.09,0-1.27,1.18-1.27,1.27v20.77h-24.59v24.59h-5.94v-30.1c0-.3,1.06-.86.48-2.08-.48-1.02-4.68-4.86-6.01-5.11l-50.67-.04c-3.85-1.59-2.83-7.84-3.27-8.34-.16-.18-2.18-.35-3.34-1.3-1.74-1.43-3.48-4.85-5.86-6.87-4.82-4.11-8.77-3.84-12.98-6.31-.73-.43-.86-1.78-1.44-2.13-1.14-.7-9.11-.8-10.48-.32-1.27.44-1.32,2.14-2.29,2.79-2.56,1.72-7.51,1.93-11.75,5.2-3.41,2.63-4.57,6.23-6.21,7.77-1.04.98-3.65.78-3.96,1.14-.55.63.28,3.87-.08,5.24-.12.45-2.7,2.14-3.17,3.16l-50.66.02c-1.33.25-5.53,4.09-6.01,5.11-.58,1.22.48,1.78.48,2.08v30.1H1.36c-2.34,0-.86,15.32-1.27,17.81h2.54v-15.26h16.96v-34.34c0-.32,2.13-2.06,2.76-2.33,17.65-1.44,35.72-.3,53.52-.59.33-1.84,2.56-3.77,2.9-4.89.41-1.35-.18-3.84.3-4.37.22-.25,1.84-.14,2.8-.97,1.21-1.04,2.45-4.21,4.24-5.96,5.07-4.96,9.74-4.34,14.33-6.9,1.28-.71.88-2.24,2.63-2.46,1.18-.15,4.8-.2,5.8.06.77.2.9,1.78,1.99,2.4,3.44,1.93,7.69,1.67,12.1,4.89,3.56,2.6,4.58,6.25,6.45,8,.9.84,2.52.65,2.81.97.36.4,1.56,9.36,3.9,9.81.43.08,2.25-.64,3.4-.66,14.06-.16,30.37-.87,44.2.04,1.66.11,7.99.66,7.99,2.97v34.34h11.02v-24.59h28.83v10.18s5.94,0,5.94,0v-15.26h-10.17v-16.96h30.95c.09,0,1.27,1.18,1.27,1.27v30.95h5.94v-54.26h21.2v-62.74h34.76v11.03s9.33,0,9.33,0v100.05h9.33v-89.88h22.05v17.81c-10.53-.74-10.91-.35-10.18,10.18,5.84-.16,7.67,1.86,6.79-5.09h35.61v21.2h23.74v15.26h16.96l.89,50.83,7.59.05-.03-203.1c1.22-6.92,3.62-12.56,2.57-19.9,1.7-.28,10.64.4,11.03,0,.36-.36-.54-6.32.44-8.47,1.51-3.33,13.45-12.91,16.09-16.96l16.94,17.81c1.09,1.43,0,7.19.44,7.62.36.36,8.58-.27,10.18,0,.74,4.46-2.16,10.96,2.59,13.32l-.06,209.68h7.64v-178.91c.79-.15,3.15.24,3.4,0,.41-.39-.46-9.12.17-11.27.25-.86,6.01-8.9,7.01-9.95,2.75-2.87,9.62-7.03,13.61-6.86,1.6.07.85,1.75,2.48,1.88,3.38.28,4.63-1.99,7.43-1.65,5.97.72,16.42,10.39,18.08,15.94.78,2.62-.05,11.5.38,11.91.26.25,3.3-.17,4.24,0v178.9h6.78V54.26c0-.34,5.76-.39,6.78,0v115.74c0,1.5,4.74,1.42,5.94,1.27V36.46c0-.25,5.09.25,5.09,0v-18.65c0-.21,3.95.28,4.23,0,.92-.95-.49-13.08,0-15.25h55.96v15.26c0,.21,4.24-.21,4.24,0v16.53c0,.21-.68.5-.65.85.16,1.95,5.1,1.17,6.59,1.27l-.75,133.48c.47,1.92,4.22,1.3,5.84,1.34V54.69c0-1.18,6.78-.78,6.78-.42v257.76h6.78v-166.61c0-1.15,2.45-6.45,4.62-5.56l49.65.47c.38.23,1.7,2.3,1.7,2.54v169.15c8.11.75,7.41-.42,7.64-7.15,1.97-56.77,1.8-120.49.03-177.31-.05-1.63-.66-3.05-.89-4.62h17.38c1.21,0,2.07-7.47,3.09-8.34.76-.65,3.82.19,4.12-.13.22-.23-.26-2.62,0-3.66.17-.65,1.51-.53,1.66-1.17.8-3.3-.54-8.95-.03-12.6.27-1.89,1.54-2.97,1.7-4.24.39-3.11-.19-6.55.05-9.71,1.53.32,1.58,1.67,1.72,2.94.92,8.58-.31,17.44,2.46,25.56.29.84-.15,2.65.06,2.87.32.34,4.77-.35,5.08,0,.24.27-.27,1.95.03,2.73.31.79,1.5.63,1.65,1.24.26,1.06-.2,4.5.02,4.5h17.81v189.08h11.87c-.29-1.71.4-10.64,0-11.03-.26-.25-3.3.17-4.24,0v-77.16c5.84-.65,13.51,2.97,11.88-5.94,2.26-.15,14.72.55,15.26,0,.72-.72-2.11-8.56,3.81-8.56,6.04,0,2.54,7.69,4.63,9.03l32.25-.48c.32.33-.29,5.93,0,5.93h11.87v77.16c-.94.17-3.98-.26-4.24,0-.4.38.3,9.32,0,11.03h12.72v-177.63c0-.6-6.34-5.59-6.78-7.2,3.31-.46,4.53,3.07,6.84,4.6,6.44,4.26,13.56,5.23,20.89,2.34,4.22-1.66,6.49-5.32,10.43-6.95.73,2.45-5.93,5.82-5.93,6.35v178.48h11.02v-115.74c10.07-19.97,21.29-39.4,30.53-59.77l31.36,56.38v119.13c8.48.74,8.73-.09,9.36-8.02.83-10.53-2.04-29.81.82-38.84.28-.89,1.76-.83,2.36-2.04,1.75-3.53,2.17-11.44,3.58-15.53,1.29-.21,1,1.58,1.25,2.54.93,3.67,1.73,10.91,2.96,13.85.4.95,1.7.35,2.28.8.71.56.94,2.12,1.57,2.3.83.24,10.36-10.74,12.28-12.31,1.22-1,2.55-1.89,3.84-2.79,4.78,3.59,9.03,7.82,13.18,12.1.91.94,3.68,6.04,4.97,1.59.34-1.18-1.11-10.28-.81-13.47,1.34-14.57.48-28.51,1.74-42.34.65-7.06,2.7-4.78,3.42-6.07,1.74-3.13,2.4-12.5,3.36-16.42,3.79,3.03,2.73,13.3,5,16.46.64.9,2.3-.01,2.66,1.03,2.76,8.06.15,29.72.81,39.75.69,10.52.94,17.25.81,27.93-.06,4.67-.38,9.54.9,14.03,2.78.86.97-2.31,2.15-2.6,4.43-1.07,13.21.91,18.19.06v27.98c2.78-.41,7.84,1.49,8.48-2.12l2.97-75.04h92.84l.84,77.16h11.03v-31.8l36.04-15.68c.59-8.36.18-16.68.46-25.06.2-6,1.22-8.25,1.68-13.48.18-2.02.84-7.05-1.72-6.41-.35-1.3,1.01-.4,1.64-1.47,2.68-4.47,1.06-8.92,1.78-13.32.21-1.28,1.37-2.19,1.61-3.48.33-1.81-.88-5.52.88-6.31,2.31,6.42,1.27,17.5,4.29,23.1.49.91,1.56.58,1.64.65.87.77-1.59.39-1.76,2.04-.52,4.92.63,9.23,2.34,13.74l-.44,29.43,35.89,15.81c-.67,10.6,1.9,21.74-.41,32.23h7.63s0-23.73,0-23.73c5.49.92,2.44-1.98,3.51-3.26.13-.16,3.19-1.61,3.7-1.83.63-.27.15,1.49.96,1.71,1.68.45,4.36-.29,6.23-.02-1.63-4.06-.6-8.74-.86-13.12-.14-2.37-1.55-5.81-1.6-7.72,0-.24,3.02-.49,1.62-2.04-.64-.71-5.46-.97-6.78-.86.94-3.93-2.09-8.99-2.15-12.29-.06-3.09,2.46-6.69.45-10.62l-2.53.85.44-2.55c6.97-.99,3.62,5.69,8.02,8.49l1.72-9.33c5.87.2,6.86,2.94,5.5,8.49-.91,0,.26-4.7-1.71-5.09-3.46-.69-1.25,5.76-1.22,7.17.11,5.38.05,10.83.01,16.11-.04,5.15-2.61,18.72.75,21.9.9.85,2.3.64,2.96,1.4.33.38-.36,1.66.45,2.16.88.55,2.57.3,2.57.43v23.74h20.35v15.26h2.54ZM892.36,98.64c7.67-8.29,21.75-9.72,31.03-3.2,1.04.73,7.63,7.38,6.84,7.99-1.77,1.36-5.3-4.29-6.77-5.51-9.26-7.71-19.87-6.65-28.75.95-1.51,1.3-3,5.55-5.17,4.15,1.21-1.25,1.67-3.13,2.83-4.38ZM892.92,105.98c6.69-14.21,27.11-13.8,33.92,0h-8.48c.72-1.5,1.07-2.96.92-4.66-.38-4.55-2.53-2.14-5.55-2.07-1.99.04-12.49-.68-13.11.03l.78,6.7h-8.48ZM886.98,108.53h44.94c1.68,4.6.58,8.94,0,13.57h-44.09l-.85-13.57ZM1091.32,272.17v-5.93s.85,0,.85,0v15.26h-18.65v-9.33h17.81Z"/>
      <path class="cls-1" d="M919.2,135.66c-2.77,1.33-8.87.45-8.89,3.79,2.18,56.72-1.31,113.77,0,170.47.09,3.96,5.89,1.45,8.89,2.1v-176.36ZM913.27,309.48v-169.15c0-.9,2.41-1.61,3.39-1.27v170.43c0,.17-3.27.12-3.39,0Z"/>
      <path class="cls-1" d="M900.55,135.66v176.36h8.48v-174.66c0-.43-7.15-.43-8.48-1.7ZM903.09,139.05c.56.04,3.39.67,3.39.85v169.58h-4.24c-.42-.31.85-1.09.85-1.27v-169.15Z"/>
      <path class="cls-1" d="M124.73,279.8h-5.09c-.3,3.7-1.87,27.81-.85,28.83.26.26,4.7-.31,6.21.15,1.9.58,1.84,2.92,2.85,3.25,5.54,1.85,1.36-5.2,1.06-8.01-.89-8.27-.61-21.32,2.61-28.86-.27-1.34-22.46-7.39-25.73-8.69l-25.99,8.25c-.9,2.04,1.42,1.36,1.68,2.26,2.05,7.06,1.17,24.43-.6,31.45-1.55,6.14,4.07,4.27,4.8-.28,1.45-8.99-.49-22.39-.73-31.67l20.85-6.65,20.12,6.48.58,1.36-1.78,16.54v-14.41Z"/>
      <path class="cls-1" d="M992.23,196.83l-55.6,105.07-.47,9.29c8.12.79,7.83-.19,10.91-6.48,16.78-34.31,30.37-71.02,47.21-105.41.82-2.56.77-3.01-2.04-2.46ZM938.7,308.63l.66-6.55,31.12-58.76,2.13-2.53-29.76,67.73-4.15.1Z"/>
      <path class="cls-1" d="M559.7,145.84c-10.85-2.8-5.2,8.6-6.78,10.18-.31.31-6.29-.23-7.64,0v12.72h-11.87v-12.72c-1.35-.23-7.32.32-7.64,0-.36-.36.27-8.58,0-10.18h-5.94v15.27c0,.38,7.63-.38,7.63,0v14.41h23.74v-14.41c0-.42,8.48.42,8.48,0v-15.26Z"/>
      <path class="cls-1" d="M1267.68,282.77c.17-.59,2.98-2.39,2.54-2.96-4.92-.19-15.99-7.89-19.86-7.63-4.33.28-13.83,7.36-19.14,7.63-.32.41,2.54,3.06,2.54,3.81v28.4h2.54v-30.1c3.22-1.34,11.73-6.27,14.71-6.11.67.03,11.85,4.38,12.61,4.86.6.37,1.51,1.6,1.51,2.1v29.25h2.54v-29.25Z"/>
      <path class="cls-1" d="M100.99,281.07c-.54-1.72-4.33-1.29-5.94-1.28.32,9.67-.24,19.24-.85,28.84h6.79v-27.56Z"/>
      <path class="cls-1" d="M117.1,281.07c-.54-1.72-4.33-1.29-5.94-1.28.21,9.66-.04,19.27-.85,28.84h6.79v-27.56Z"/>
      <polygon class="cls-1" points="103.53 279.8 102.68 308.64 109.47 308.64 108.63 279.8 103.53 279.8"/>
      <path class="cls-1" d="M86.58,308.63c9.37.61,6.07-1.32,5.9-7.17-.1-3.35.78-20.21-.75-21.29-1.25-.88-5.15-.36-5.15.9v27.56Z"/>
      <path class="cls-1" d="M533.41,132.27v22.05h12.72v-22.05h-12.72ZM535.96,134.81h7.63v16.96h-7.63v-16.96Z"/>
    </g>
  </g>
</svg>
